<svg width="490" height="404" viewBox="0 0 490 404" fill="none" xmlns="http://www.w3.org/2000/svg">
<path d="M480 0.406982H10C4.477 0.406982 0 4.88498 0 10.407V393.593C0 399.116 4.477 403.593 10 403.593H480C485.522 403.593 490 399.116 490 393.593V10.407C490 4.88498 485.522 0.406982 480 0.406982ZM470 20.407V80.632H20V20.407H470ZM20 383.593V100.632H470V383.593H20Z" fill="#FFFEFE"/>
<path d="M156.082 150.946H76.1169C70.5949 150.946 66.1169 155.423 66.1169 160.946V241.942C66.1169 247.464 70.5949 251.942 76.1169 251.942H156.082C161.605 251.942 166.082 247.464 166.082 241.942V160.946C166.082 155.423 161.605 150.946 156.082 150.946ZM146.082 231.942H86.1169V170.946H146.082V231.942Z" fill="#FFFEFE"/>
<path d="M204.285 251.942H284.246C289.768 251.942 294.246 247.464 294.246 241.942V160.946C294.246 155.423 289.768 150.946 284.246 150.946H204.285C198.763 150.946 194.285 155.423 194.285 160.946V241.942C194.285 247.465 198.763 251.942 204.285 251.942ZM214.285 170.946H274.246V231.942H214.285V170.946V170.946Z" fill="#FFFEFE"/>
<path d="M332.455 251.942H412.42C417.943 251.942 422.42 247.464 422.42 241.942V160.946C422.42 155.423 417.943 150.946 412.42 150.946H332.455C326.932 150.946 322.455 155.423 322.455 160.946V241.942C322.455 247.465 326.933 251.942 332.455 251.942ZM342.455 170.946H402.42V231.942H342.455V170.946V170.946Z" fill="#FFFEFE"/>
<path d="M156.082 277.317H76.1169C70.5949 277.317 66.1169 281.794 66.1169 287.317C66.1169 292.84 70.5949 297.317 76.1169 297.317H156.082C161.605 297.317 166.082 292.84 166.082 287.317C166.082 281.795 161.605 277.317 156.082 277.317Z" fill="#FFFEFE"/>
<path d="M156.082 314.317H76.1169C70.5949 314.317 66.1169 318.794 66.1169 324.317C66.1169 329.84 70.5949 334.317 76.1169 334.317H156.082C161.605 334.317 166.082 329.84 166.082 324.317C166.082 318.795 161.605 314.317 156.082 314.317Z" fill="#FFFEFE"/>
<path d="M284.982 277.317H205.02C199.498 277.317 195.02 281.794 195.02 287.317C195.02 292.84 199.498 297.317 205.02 297.317H284.983C290.506 297.317 294.983 292.84 294.983 287.317C294.982 281.795 290.505 277.317 284.982 277.317Z" fill="#FFFEFE"/>
<path d="M284.982 314.317H205.02C199.498 314.317 195.02 318.794 195.02 324.317C195.02 329.84 199.498 334.317 205.02 334.317H284.983C290.506 334.317 294.983 329.84 294.983 324.317C294.982 318.795 290.505 314.317 284.982 314.317Z" fill="#FFFEFE"/>
<path d="M413.883 277.317H333.918C328.396 277.317 323.918 281.794 323.918 287.317C323.918 292.84 328.396 297.317 333.918 297.317H413.883C419.405 297.317 423.883 292.84 423.883 287.317C423.883 281.795 419.405 277.317 413.883 277.317Z" fill="#FFFEFE"/>
<path d="M413.883 314.317H333.918C328.396 314.317 323.918 318.794 323.918 324.317C323.918 329.84 328.396 334.317 333.918 334.317H413.883C419.405 334.317 423.883 329.84 423.883 324.317C423.883 318.795 419.405 314.317 413.883 314.317Z" fill="#FFFEFE"/>
<path d="M76.1169 60.299H81.0549C86.5769 60.299 91.0549 55.821 91.0549 50.299C91.0549 44.777 86.5769 40.299 81.0549 40.299H76.1169C70.5949 40.299 66.1169 44.777 66.1169 50.299C66.1169 55.821 70.5949 60.299 76.1169 60.299Z" fill="#FFFEFE"/>
<path d="M117.584 60.299H122.519C128.041 60.299 132.519 55.821 132.519 50.299C132.519 44.777 128.042 40.299 122.519 40.299H117.584C112.062 40.299 107.584 44.777 107.584 50.299C107.584 55.821 112.062 60.299 117.584 60.299Z" fill="#FFFEFE"/>
<path d="M159.049 60.299H163.981C169.503 60.299 173.981 55.821 173.981 50.299C173.981 44.777 169.503 40.299 163.981 40.299H159.049C153.527 40.299 149.049 44.777 149.049 50.299C149.049 55.821 153.526 60.299 159.049 60.299Z" fill="white"/>
</svg>
